<mxfile host="app.diagrams.net" modified="2023-11-24T02:08:27.028Z" agent="Mozilla/5.0 (Windows NT 10.0; Win64; x64) AppleWebKit/537.36 (KHTML, like Gecko) Chrome/119.0.0.0 Safari/537.36" version="22.1.3" etag="XN84QfB5AyBchuqWV2M4" type="github">
  <diagram name="PÃ¡gina-1" id="J2w--0wA-UQqzT2J9baA">
    <mxGraphModel>
      <root>
        <mxCell id="0" />
        <mxCell id="1" parent="0" />
      </root>
    </mxGraphModel>
  </diagram>
</mxfile>
